<svg xmlns="http://www.w3.org/2000/svg" xmlns:xlink="http://www.w3.org/1999/xlink" version="1.1" x="0px" y="0px" viewBox="0 0 100 100" enable-background="new 0 0 100 100" xml:space="preserve"><g><path d="M36.02,34.822c0-4.271-3.474-7.746-7.746-7.746s-7.748,3.475-7.748,7.746s3.476,7.746,7.748,7.746   S36.02,39.094,36.02,34.822z M24.356,34.822c0-2.159,1.758-3.916,3.918-3.916s3.916,1.757,3.916,3.916   c0,2.16-1.756,3.916-3.916,3.916S24.356,36.982,24.356,34.822z"></path><path d="M85.326,32.12c0-3.059-2.489-5.547-5.551-5.547c-3.059,0-5.547,2.488-5.547,5.547c0,3.06,2.488,5.549,5.547,5.549   C82.837,37.669,85.326,35.18,85.326,32.12z M78.061,32.12c0-0.946,0.771-1.717,1.717-1.717c0.949,0,1.721,0.771,1.721,1.717   c0,0.948-0.771,1.719-1.721,1.719C78.83,33.839,78.061,33.068,78.061,32.12z"></path><path d="M95,33.519c0-8.391-6.829-15.218-15.225-15.218c-8.389,0-15.213,6.827-15.213,15.218c0,9.622,8.778,23.437,12.273,28.555   L33.538,80.031c6.222-9.403,18.009-29.053,18.009-42.963c0-12.832-10.44-23.271-23.272-23.271C15.441,13.797,5,24.236,5,37.068   C5,55.564,25.843,84.209,26.73,85.42c0.014,0.02,0.032,0.031,0.046,0.051c0.018,0.021,0.033,0.045,0.052,0.066   c0.044,0.052,0.096,0.097,0.146,0.145c0.041,0.036,0.079,0.075,0.122,0.108c0.017,0.013,0.029,0.028,0.046,0.042   c0.012,0.009,0.027,0.012,0.04,0.021c0.041,0.027,0.083,0.051,0.125,0.074c0.096,0.057,0.195,0.104,0.298,0.141   c0.034,0.014,0.066,0.035,0.101,0.046c0.023,0.008,0.047,0.01,0.07,0.017c0.153,0.041,0.308,0.064,0.466,0.068   c0.011,0,0.021,0.005,0.032,0.005c0.136,0,0.273-0.019,0.409-0.048c0.039-0.01,0.075-0.023,0.113-0.034   c0.037-0.011,0.072-0.021,0.108-0.033c0.034-0.012,0.068-0.019,0.102-0.03l51.501-21.36c0.021-0.009,0.039-0.022,0.06-0.032   c0.053-0.023,0.102-0.053,0.149-0.08c0.06-0.033,0.117-0.064,0.17-0.104c0.007-0.004,0.013-0.006,0.019-0.01   c0.018-0.012,0.029-0.027,0.046-0.039c0.034-0.029,0.069-0.06,0.103-0.09c0.039-0.035,0.079-0.068,0.114-0.105   c0.036-0.038,0.065-0.079,0.099-0.119c0.017-0.021,0.037-0.036,0.053-0.059C81.879,63.299,95,45.275,95,33.519z M79.775,22.131   c6.283,0,11.395,5.108,11.395,11.388c0,8.284-7.962,20.972-11.395,26.055c-3.428-5.084-11.383-17.771-11.383-26.055   C68.393,27.239,73.5,22.131,79.775,22.131z M28.274,17.627c10.721,0,19.442,8.722,19.442,19.441   c0,14.458-14.598,36.856-19.442,43.891C23.43,73.925,8.83,51.525,8.83,37.068C8.83,26.349,17.553,17.627,28.274,17.627z"></path></g></svg>